<svg id="Ebene_1" data-name="Ebene 1" xmlns="http://www.w3.org/2000/svg" xmlns:xlink="http://www.w3.org/1999/xlink" viewBox="0 0 1920 1080"><defs><style>.cls-1,.cls-4{fill:none;}.cls-2{clip-path:url(#clip-path);}.cls-3{fill:#faf8ec;}.cls-4{stroke:#b27653;}</style><clipPath id="clip-path"><rect class="cls-1" width="1920" height="1080"/></clipPath></defs><g class="cls-2"><path class="cls-3" d="M1100-42S843.12-187.84,969,198c69,211.5-19,202-9,331,7.63,98.42,24,128.58,12,186.79S861,921,942,1027.48,993,1098,993,1146s720,0,720,0h342l-15-540L2000-42Z"/></g><g class="cls-2"><path class="cls-4" d="M-81.34,487.19S176.48,391.12,173.57,608.4c-2.59,192.83,36,351,144,429,97.67,70.55,368.07-94.78,447,0,39.73,47.72,141,231,141,231"/><path class="cls-4" d="M749.19,1299.92s-238.29,192-306.3-87.55C382.53,964.29,290.44,771.65,152,700.37c-125.25-64.46-354,219.76-467.61,119.19"/><path class="cls-4" d="M-71.88,258s161.51-39,283.25-21S468.12,60,582.12,3"/></g></svg>