<svg id="Ebene_1" data-name="Ebene 1" xmlns="http://www.w3.org/2000/svg" xmlns:xlink="http://www.w3.org/1999/xlink" viewBox="0 0 1920 1080"><defs><style>.cls-1,.cls-3{fill:none;}.cls-2{clip-path:url(#clip-path);}.cls-3{stroke:#b27653;}</style><clipPath id="clip-path"><rect class="cls-1" width="1920" height="1080"/></clipPath></defs><g class="cls-2"><path class="cls-3" d="M-100.36,436.06S157.47,340,154.56,557.28c-2.59,192.83,36,351,144,429,97.67,70.54,368.07-94.79,447,0,39.73,47.71,141,231,141,231"/><path class="cls-3" d="M1346.64-199.94S1604.46-296,1601.55-78.72c-2.58,192.83,36,351,144,429,97.67,70.54,368.07-94.79,447,0,39.73,47.71,141,231,141,231"/><path class="cls-3" d="M730.18,1248.79s-238.29,192-306.3-87.54C363.52,913.16,271.43,720.52,133,649.25,7.7,584.79-221.1,869-334.66,768.44"/><path class="cls-3" d="M1452.18-1.27s285-111.46,265.8,175.6c-17,254.75,12.86,466.17,123.51,575.79,100.07,99.14,403.74-103.13,481.8,26.93"/><path class="cls-3" d="M1750.31,1199.66s-222.65-243.65-25-334c175.4-80.16,297.81-190.9,311.26-343.87,12.17-138.34-279.63-366.08-235.69-494.14C1823-36.78,1935-227.63,1935-227.63"/><path class="cls-3" d="M2002.25,40.87S2278.14,173.28,2055.1,355c-197.93,161.28-332.16,327.33-336.87,483-4.26,140.8,350.77,225,308.89,370.74"/><path class="cls-3" d="M-71.88,258s161.51-39,283.25-21S468.12,60,582.12,3"/></g></svg>