<svg id="Ebene_1" data-name="Ebene 1" xmlns="http://www.w3.org/2000/svg" xmlns:xlink="http://www.w3.org/1999/xlink" viewBox="0 0 1920 1080"><defs><style>.cls-1,.cls-3,.cls-9{fill:none;}.cls-2{clip-path:url(#clip-path);}.cls-3,.cls-9{stroke:#b27653;}.cls-4{fill:#faf2da;}.cls-5{fill:#fafcef;}.cls-6{font-size:250px;font-family:Mermaid-Bold, Mermaid;font-weight:700;}.cls-10,.cls-6{fill:#b27653;}.cls-7{letter-spacing:0em;}.cls-8{letter-spacing:0em;}.cls-9{stroke-width:4px;}</style><clipPath id="clip-path"><rect class="cls-1" width="1920" height="1080"/></clipPath></defs><g class="cls-2"><path class="cls-3" d="M851.79,526.6s294.93,77.9,315.83-63.14c19.37-130.76,18.5-175.59-112.71-303.27C950.22,58.32,789,236.11,685.68,167.57c-67.74-44.93-119.88-81.47-181.83-61.1C384,145.9,516.42,241.46,364.28,297.66c-116.46,43,.43,296.06,129.59,274.18S616.6,475.3,851.79,526.6Z"/><path class="cls-4" d="M502.08,215.2S172.79,137.52,152.3,288.51c-19,140-17.16,187.86,131.15,321.76,118.32,106.82,294.05-86,410.2-14.77C769.81,642.22,867.55,698.91,936,676c132.45-44.33,10-130,112.33-225.4C1148.75,357,1033.12,154.23,890,180s-125.54,85.6-387.92,35.2"/></g><g class="cls-2"><path class="cls-5" d="M921-93S1283.78-8.94,1220.78,69.06s-114,108.5-33,177S1521,69,1521,69s108-135-66.22-128.94C1314.24-55.06,921-93,921-93"/><path class="cls-5" d="M426.13,1227.38s-165.72-128.53-61.85-242.93,185.36-157,65.35-268.53S-93,708-93,708s-27.11,269.51,84.35,455.11,434.78,64.27,434.78,64.27"/><path class="cls-5" d="M2110.68,452.5s-158.51,452.83-320,386.8-170-178.79-314-198C1293.32,616.84,1281,1146,1281,1146s737.12,84.93,891-105-61.32-588.5-61.32-588.5"/></g><g class="cls-2"><path class="cls-3" d="M1319.28-317.82S1458.84-217.93,1341-48s-100.66,555.3,63,409.38C1641,150,2098.79,280.6,2098.79,280.6s-11.11-362.31-191.42-589.09S1319.28-317.82,1319.28-317.82Z"/><path class="cls-3" d="M655.24,1143.38s-201.68,2.18-287.52-240.62-486.47-596.07-458-344.25c41.3,364.77-421.71,558.64-421.71,558.64s373,335.62,732,425.43S655.24,1143.38,655.24,1143.38Z"/><text class="cls-6" transform="translate(562.25 995.5)">mes<tspan class="cls-7" x="428.74" y="0">s</tspan><tspan class="cls-8" x="533.11" y="0">age me.</tspan></text></g><g class="cls-2"><circle class="cls-9" cx="1873.5" cy="845.5" r="22.5"/><path class="cls-10" d="M1877.06,837.58a27,27,0,0,1,2.82,1.16l1.7-4.3a16.79,16.79,0,0,0-7.3-1.76,12,12,0,0,0-6.21,1.56,10.21,10.21,0,0,0-4.07,4.49,15.38,15.38,0,0,0-1.42,6.81q0,6.18,2.88,9.48c1.93,2.2,4.7,3.3,8.33,3.3a17.76,17.76,0,0,0,6.86-1.28V852.6a19.75,19.75,0,0,1-6.37,1.32q-6.26,0-6.26-8.34a10.41,10.41,0,0,1,1.64-6.25,5.38,5.38,0,0,1,4.62-2.25,8.38,8.38,0,0,1,2.78.5"/></g></svg>