<svg id="Ebene_1" data-name="Ebene 1" xmlns="http://www.w3.org/2000/svg" xmlns:xlink="http://www.w3.org/1999/xlink" viewBox="0 0 1920 1080"><defs><style>.cls-1,.cls-3,.cls-5{fill:none;}.cls-2{clip-path:url(#clip-path);}.cls-3{stroke:#000;}.cls-4{fill:#faf2da;}.cls-5{stroke:#b27653;}</style><clipPath id="clip-path"><rect class="cls-1" width="1920" height="1080"/></clipPath></defs><g class="cls-2"><g class="cls-2"><path class="cls-3" d="M1126.88,786.59S1519.29,902.47,1547.52,691c26.17-196,25.15-263.24-149.16-454.22C1259.29,84.45,1044.14,351.38,906.8,249c-90-67.15-159.36-121.75-241.88-91-159.69,59.44,16.32,202.28-186.38,287-155.16,64.82-.29,443.74,171.72,410.57S813.93,710.38,1126.88,786.59Z"/><path class="cls-4" d="M804.59,217.75S396.07,111.06,370.66,318.44c-23.57,192.27-21.29,258,162.7,441.89,146.79,146.71,339.21-66,483.3,31.82,94.48,64.17,241.32,89.91,326.24,58.45,164.31-60.88,12.4-178.54,139.35-309.56,124.59-128.59-18.87-407-196.42-371.63S1130.09,287,804.59,217.75"/></g><g class="cls-2"><path class="cls-5" d="M-100.36,436.06S157.47,340,154.56,557.28c-2.59,192.83,36,351,144,429,97.67,70.54,368.07-94.79,447,0,39.73,47.71,141,231,141,231"/><path class="cls-5" d="M1346.64-199.94S1604.46-296,1601.55-78.72c-2.58,192.83,36,351,144,429,97.67,70.54,368.07-94.79,447,0,39.73,47.71,141,231,141,231"/><path class="cls-5" d="M730.18,1248.79s-238.29,192-306.3-87.54C363.52,913.16,271.43,720.52,133,649.25,7.7,584.79-221.1,869-334.66,768.44"/><path class="cls-5" d="M1452.18-1.27s285-111.46,265.8,175.6c-17,254.75,12.86,466.17,123.51,575.79,100.07,99.14,403.74-103.13,481.8,26.93"/></g></g></svg>