<svg id="Ebene_1" data-name="Ebene 1" xmlns="http://www.w3.org/2000/svg" xmlns:xlink="http://www.w3.org/1999/xlink" viewBox="0 0 1920 1080"><defs><style>.cls-1,.cls-3{fill:none;}.cls-2{clip-path:url(#clip-path);}.cls-3{stroke:#b27653;}.cls-4{fill:#faf2da;}</style><clipPath id="clip-path"><rect class="cls-1" width="1920" height="1080"/></clipPath></defs><g class="cls-2"><path class="cls-3" d="M736.07,687.43s248.92,80.27,267.07-67C1020,483.89,1019.39,437.11,909,304.31c-88.1-105.95-224.94,80.16-312,9-57.09-46.67-101-84.62-153.43-63.14C342.13,291.72,453.69,391,325,450.18c-98.55,45.3-.67,309,108.54,285.71S537.53,634.7,736.07,687.43Z"/><path class="cls-3" d="M1356,570.67s-251.25-12-240.18,112.82c10.26,115.77,19.78,154.06,149.89,239.22,103.8,67.93,197.73-114.51,293.87-74.91,63,26,111.94,47.62,157.47,18.64,88.11-56.08-36.63-113.46,74-189.92,84.68-58.53-58.66-253.89-157.66-211.13S1554.26,571,1356,570.67Z"/><path class="cls-4" d="M532.14,290.53s-259.4-74.28-275.53,70.11c-15,133.87-13.52,179.63,103.31,307.68,93.2,102.15,215.39-46,306.88,22.15,60,44.68,153.24,62.61,207.16,40.7,104.33-42.39,7.88-124.31,88.48-215.54,79.11-89.53-12-283.41-124.72-258.76s-98.89,81.86-305.58,33.66"/><path class="cls-4" d="M1565.55,816.87s251.6,13.1,236-121.66C1787,570.27,1776.07,528.94,1642.89,437c-106.25-73.36-186.3,87.08-283.85,44.3-64-28.05-152.56-24.77-197,6.49-86,60.48,19,114.75-35.23,214.68-53.16,98.07,70.43,255.32,167.82,209.22s72.78-95.25,270.94-94.81"/></g></svg>