<svg id="Ebene_1" data-name="Ebene 1" xmlns="http://www.w3.org/2000/svg" xmlns:xlink="http://www.w3.org/1999/xlink" viewBox="0 0 1920 1080"><defs><style>.cls-1,.cls-3{fill:none;}.cls-2{clip-path:url(#clip-path);}.cls-3{stroke:#b27653;}.cls-4{fill:#faf2da;}.cls-5{fill:#fafcef;}</style><clipPath id="clip-path"><rect class="cls-1" width="1920" height="1080"/></clipPath></defs><g class="cls-2"><path class="cls-3" d="M959.15,829.43S1351.37,955.94,1380,723.85c26.51-215.2,25.6-288.93-148.39-498.23C1092.75,58.65,877.15,352,740,239.79c-90-73.54-159.16-133.35-241.74-99.5-159.79,65.5,16,222-186.87,315.23-155.28,71.4-1,487,171,450.29S646.32,746.33,959.15,829.43Z"/><path class="cls-4" d="M637.92,204.15S229.41,87.16,204,314.55C180.43,525.39,182.71,597.46,366.7,799.1,513.48,960,705.9,726.69,850,834c94.48,70.36,241.32,98.59,326.24,64.09,164.31-66.76,12.4-195.77,139.35-339.45,124.59-141-18.87-446.32-196.42-407.5s-155.74,128.91-481.25,53"/></g><g class="cls-2"><path class="cls-5" d="M1251-95.72s362.78,84.06,299.78,162.06-114,108.5-33,177S1851,66.28,1851,66.28s108-135-66.22-128.94C1644.24-57.78,1251-95.72,1251-95.72"/><path class="cls-5" d="M360,1416.52S194.28,1288,298.16,1173.59s185.35-157,65.34-268.53-522.63-7.92-522.63-7.92-27.11,269.51,84.35,455.11S360,1416.52,360,1416.52"/><path class="cls-5" d="M2107.68,597.46s-158.51,452.83-320,386.8-170-178.79-314-198C1290.32,761.8,1278,1291,1278,1291s737.12,84.94,891-105-61.32-588.5-61.32-588.5"/></g><g class="cls-2"><path class="cls-3" d="M1649.28-320.54S1788.84-220.65,1671-50.72s-100.66,555.3,63,409.38c237-211.38,694.82-80.78,694.82-80.78s-11.11-362.31-191.42-589.1S1649.28-320.54,1649.28-320.54Z"/><path class="cls-3" d="M589.11,1332.52s-201.68,2.18-287.52-240.62-486.47-596.07-458-344.25c41.3,364.77-421.71,558.64-421.71,558.64s373,335.62,732,425.43S589.11,1332.52,589.11,1332.52Z"/></g></svg>